<svg width="525" height="135" viewBox="0 0 525 135" fill="none" xmlns="http://www.w3.org/2000/svg">
<path d="M177.103 43H166.013V10.2727H177.327C180.576 10.2727 183.368 10.9279 185.701 12.2383C188.044 13.538 189.845 15.4077 191.102 17.8473C192.359 20.2869 192.988 23.206 192.988 26.6044C192.988 30.0135 192.354 32.9432 191.086 35.3935C189.829 37.8437 188.012 39.7241 185.637 41.0344C183.272 42.3448 180.427 43 177.103 43ZM171.942 37.8704H176.816C179.096 37.8704 180.997 37.4549 182.521 36.6239C184.044 35.7823 185.189 34.5305 185.956 32.8686C186.723 31.196 187.107 29.108 187.107 26.6044C187.107 24.1009 186.723 22.0234 185.956 20.3722C185.189 18.7102 184.055 17.4691 182.553 16.6488C181.061 15.8178 179.207 15.4023 176.991 15.4023H171.942V37.8704ZM205.428 43.4954C203.873 43.4954 202.472 43.2184 201.225 42.6644C199.99 42.0998 199.009 41.2688 198.285 40.1715C197.571 39.0742 197.214 37.7212 197.214 36.1126C197.214 34.7276 197.47 33.5824 197.981 32.6768C198.493 31.7713 199.191 31.0469 200.075 30.5036C200.959 29.9602 201.955 29.5501 203.063 29.2731C204.182 28.9854 205.338 28.7777 206.531 28.6499C207.969 28.5007 209.135 28.3675 210.03 28.2504C210.925 28.1225 211.575 27.9308 211.98 27.6751C212.395 27.4087 212.603 26.9986 212.603 26.4446V26.3487C212.603 25.1449 212.246 24.2127 211.532 23.5522C210.819 22.8917 209.791 22.5614 208.448 22.5614C207.031 22.5614 205.907 22.8704 205.077 23.4883C204.256 24.1062 203.702 24.8359 203.415 25.6776L198.013 24.9105C198.439 23.419 199.143 22.1726 200.123 21.1712C201.103 20.1591 202.301 19.4027 203.718 18.902C205.135 18.3906 206.701 18.1349 208.416 18.1349C209.599 18.1349 210.776 18.2734 211.948 18.5504C213.12 18.8274 214.191 19.2855 215.16 19.9247C216.129 20.5533 216.907 21.4109 217.493 22.4975C218.09 23.5842 218.388 24.9425 218.388 26.5724V43H212.827V39.6282H212.635C212.284 40.31 211.788 40.9492 211.149 41.5458C210.52 42.1317 209.727 42.6058 208.768 42.968C207.82 43.3196 206.706 43.4954 205.428 43.4954ZM206.93 39.2447C208.091 39.2447 209.098 39.0156 209.95 38.5575C210.803 38.0888 211.458 37.4709 211.916 36.7038C212.385 35.9368 212.619 35.1005 212.619 34.195V31.3026C212.438 31.4517 212.129 31.5902 211.692 31.718C211.266 31.8459 210.787 31.9577 210.254 32.0536C209.721 32.1495 209.194 32.2347 208.672 32.3093C208.15 32.3839 207.697 32.4478 207.314 32.5011C206.451 32.6183 205.678 32.81 204.997 33.0763C204.315 33.3427 203.777 33.7156 203.383 34.195C202.988 34.6637 202.791 35.271 202.791 36.0167C202.791 37.082 203.18 37.8864 203.958 38.4297C204.736 38.973 205.726 39.2447 206.93 39.2447ZM235.071 43.4794C232.61 43.4794 230.485 42.968 228.695 41.9453C226.916 40.9119 225.547 39.4524 224.588 37.5668C223.629 35.6705 223.15 33.4386 223.15 30.8711C223.15 28.3462 223.629 26.1303 224.588 24.2234C225.558 22.3058 226.911 20.8143 228.647 19.7489C230.384 18.6729 232.424 18.1349 234.768 18.1349C236.28 18.1349 237.708 18.38 239.05 18.87C240.403 19.3494 241.596 20.0952 242.63 21.1072C243.674 22.1193 244.494 23.4084 245.091 24.9744C245.687 26.5298 245.986 28.3835 245.986 30.5355V32.3093H225.867V28.4102H240.441C240.43 27.3022 240.19 26.3168 239.721 25.4538C239.253 24.5803 238.597 23.8931 237.756 23.3924C236.925 22.8917 235.955 22.6413 234.847 22.6413C233.665 22.6413 232.626 22.929 231.731 23.5043C230.836 24.0689 230.139 24.8146 229.638 25.7415C229.148 26.6577 228.898 27.6644 228.887 28.7617V32.1655C228.887 33.593 229.148 34.8182 229.67 35.8409C230.192 36.853 230.922 37.6307 231.859 38.174C232.797 38.7067 233.894 38.973 235.151 38.973C235.993 38.973 236.754 38.8558 237.436 38.6214C238.118 38.3764 238.709 38.0195 239.21 37.5508C239.711 37.082 240.089 36.5014 240.345 35.8089L245.746 36.4162C245.405 37.8437 244.755 39.0902 243.796 40.1555C242.848 41.2102 241.634 42.0305 240.153 42.6165C238.672 43.1918 236.978 43.4794 235.071 43.4794ZM251.135 43V10.2727H256.92V22.5135H257.16C257.458 21.9169 257.879 21.283 258.422 20.6119C258.965 19.93 259.701 19.3494 260.627 18.87C261.554 18.38 262.737 18.1349 264.175 18.1349C266.071 18.1349 267.781 18.6197 269.305 19.5891C270.839 20.5479 272.053 21.9702 272.948 23.8558C273.854 25.7308 274.306 28.032 274.306 30.7592C274.306 33.4545 273.864 35.745 272.98 37.6307C272.096 39.5163 270.892 40.9545 269.369 41.9453C267.845 42.9361 266.119 43.4315 264.191 43.4315C262.785 43.4315 261.618 43.1971 260.691 42.7283C259.764 42.2596 259.019 41.695 258.454 41.0344C257.9 40.3633 257.469 39.7294 257.16 39.1328H256.824V43H251.135ZM256.808 30.7273C256.808 32.3146 257.032 33.7049 257.479 34.8981C257.937 36.0913 258.593 37.0234 259.445 37.6946C260.308 38.3551 261.352 38.6854 262.577 38.6854C263.855 38.6854 264.926 38.3445 265.789 37.6626C266.652 36.9702 267.302 36.0273 267.739 34.8342C268.186 33.6303 268.41 32.2614 268.41 30.7273C268.41 29.2038 268.191 27.8509 267.755 26.6683C267.318 25.4858 266.668 24.5589 265.805 23.8878C264.942 23.2166 263.866 22.881 262.577 22.881C261.341 22.881 260.292 23.206 259.429 23.8558C258.566 24.5057 257.911 25.4165 257.463 26.5884C257.027 27.7603 256.808 29.1399 256.808 30.7273ZM286.287 43.4954C284.732 43.4954 283.331 43.2184 282.085 42.6644C280.849 42.0998 279.869 41.2688 279.144 40.1715C278.431 39.0742 278.074 37.7212 278.074 36.1126C278.074 34.7276 278.329 33.5824 278.841 32.6768C279.352 31.7713 280.05 31.0469 280.934 30.5036C281.818 29.9602 282.814 29.5501 283.922 29.2731C285.041 28.9854 286.197 28.7777 287.39 28.6499C288.828 28.5007 289.995 28.3675 290.89 28.2504C291.785 28.1225 292.434 27.9308 292.839 27.6751C293.255 27.4087 293.463 26.9986 293.463 26.4446V26.3487C293.463 25.1449 293.106 24.2127 292.392 23.5522C291.678 22.8917 290.65 22.5614 289.308 22.5614C287.891 22.5614 286.767 22.8704 285.936 23.4883C285.116 24.1062 284.562 24.8359 284.274 25.6776L278.873 24.9105C279.299 23.419 280.002 22.1726 280.982 21.1712C281.962 20.1591 283.161 19.4027 284.578 18.902C285.994 18.3906 287.561 18.1349 289.276 18.1349C290.458 18.1349 291.635 18.2734 292.807 18.5504C293.979 18.8274 295.05 19.2855 296.019 19.9247C296.989 20.5533 297.767 21.4109 298.352 22.4975C298.949 23.5842 299.247 24.9425 299.247 26.5724V43H293.686V39.6282H293.494C293.143 40.31 292.648 40.9492 292.008 41.5458C291.38 42.1317 290.586 42.6058 289.627 42.968C288.679 43.3196 287.566 43.4954 286.287 43.4954ZM287.79 39.2447C288.951 39.2447 289.958 39.0156 290.81 38.5575C291.662 38.0888 292.317 37.4709 292.775 36.7038C293.244 35.9368 293.479 35.1005 293.479 34.195V31.3026C293.297 31.4517 292.988 31.5902 292.552 31.718C292.126 31.8459 291.646 31.9577 291.113 32.0536C290.581 32.1495 290.053 32.2347 289.531 32.3093C289.009 32.3839 288.557 32.4478 288.173 32.5011C287.31 32.6183 286.538 32.81 285.856 33.0763C285.174 33.3427 284.636 33.7156 284.242 34.195C283.848 34.6637 283.651 35.271 283.651 36.0167C283.651 37.082 284.04 37.8864 284.817 38.4297C285.595 38.973 286.586 39.2447 287.79 39.2447ZM310.338 35.2976L310.322 28.3143H311.248L320.069 18.4545H326.829L315.979 30.5355H314.78L310.338 35.2976ZM305.064 43V10.2727H310.849V43H305.064ZM320.469 43L312.479 31.8299L316.378 27.755L327.388 43H320.469ZM335.59 10.2727V13.5327C335.59 14.4702 335.409 15.445 335.047 16.457C334.695 17.4585 334.21 18.4173 333.593 19.3335C332.975 20.239 332.272 21.0167 331.483 21.6665L328.799 19.9247C329.384 19.0405 329.896 18.087 330.333 17.0643C330.769 16.0309 330.988 14.8643 330.988 13.5646V10.2727H335.59ZM356.5 24.9425L351.227 25.5178C351.078 24.9851 350.816 24.4844 350.444 24.0156C350.081 23.5469 349.591 23.1687 348.973 22.881C348.356 22.5934 347.599 22.4496 346.704 22.4496C345.5 22.4496 344.488 22.7106 343.668 23.2326C342.858 23.7546 342.459 24.4311 342.47 25.2621C342.459 25.9759 342.72 26.5565 343.253 27.0039C343.796 27.4513 344.691 27.8189 345.937 28.1065L350.124 29.0014C352.446 29.5021 354.172 30.2958 355.302 31.3825C356.441 32.4691 357.017 33.8913 357.027 35.6491C357.017 37.1939 356.564 38.5575 355.669 39.7401C354.785 40.9119 353.554 41.8281 351.978 42.4886C350.401 43.1491 348.59 43.4794 346.544 43.4794C343.54 43.4794 341.122 42.8509 339.29 41.5938C337.457 40.326 336.365 38.5629 336.014 36.3043L341.655 35.761C341.91 36.869 342.454 37.7053 343.285 38.2699C344.116 38.8345 345.197 39.1168 346.528 39.1168C347.903 39.1168 349.005 38.8345 349.836 38.2699C350.678 37.7053 351.099 37.0075 351.099 36.1765C351.099 35.4734 350.827 34.8928 350.284 34.4347C349.751 33.9766 348.92 33.625 347.791 33.38L343.604 32.5011C341.25 32.011 339.508 31.1854 338.379 30.0241C337.249 28.8523 336.69 27.3714 336.701 25.5817C336.69 24.0689 337.1 22.7585 337.931 21.6506C338.773 20.532 339.939 19.669 341.431 19.0618C342.933 18.4439 344.664 18.1349 346.624 18.1349C349.501 18.1349 351.765 18.7475 353.416 19.9727C355.078 21.1978 356.106 22.8544 356.5 24.9425Z" fill="#FDF5E6"/>
<path d="M21.4453 74C27.4805 74 32.6758 75.2012 37.0312 77.6035C41.3867 79.9863 44.7363 83.4141 47.0801 87.8867C49.4434 92.3594 50.625 97.7109 50.625 103.941C50.625 110.191 49.4434 115.562 47.0801 120.055C44.7363 124.547 41.3672 127.994 36.9727 130.396C32.5977 132.799 27.3633 134 21.2695 134H0V74H21.4453ZM72.708 134H60.0215V74H72.708V134ZM120.176 111.734H120.703V74H133.33V134H122.373L96.2695 96.2363H95.8301V134H83.1445V74H94.2773L120.176 111.734ZM180.843 111.734H181.37V74H193.997V134H183.039L156.937 96.2363H156.497V134H143.811V74H154.944L180.843 111.734ZM244.907 84.459H217.163V98.7559H242.827V109.215H217.163V123.541H245.024V134H204.478V74H244.907V84.459ZM278.665 74C283.196 74.0001 287.064 74.8106 290.267 76.4316C293.489 78.0332 295.94 80.3088 297.619 83.2578C299.318 86.1875 300.169 89.6348 300.169 93.5996C300.169 97.5839 299.309 101.012 297.591 103.883C295.872 106.734 293.382 108.922 290.12 110.445C289.941 110.529 289.759 110.609 289.576 110.688L302.308 134H288.304L276.938 112.73H267.679V134H254.992V74H278.665ZM409.666 84.459H381.922V98.7559H407.586V109.215H381.922V123.541H409.783V134H369.235V74H409.666V84.459ZM443.423 74C447.954 74 451.821 74.8105 455.024 76.4316C458.247 78.0332 460.698 80.3086 462.378 83.2578C464.077 86.1875 464.927 89.6348 464.927 93.5996C464.927 97.584 464.067 101.012 462.349 103.883C460.63 106.734 458.14 108.922 454.878 110.445C454.699 110.529 454.517 110.609 454.334 110.688L467.065 134H453.062L441.696 112.73H432.437V134H419.751V74H443.423ZM495.77 99.8398H496.355L510.037 74H524.246L502.361 112.789V134H489.764V112.789L467.879 74H482.087L495.77 99.8398ZM12.6855 123.131H20.7422C24.4922 123.131 27.6465 122.467 30.2051 121.139C32.7832 119.791 34.7168 117.711 36.0059 114.898C37.3145 112.066 37.9688 108.414 37.9688 103.941C37.9688 99.5078 37.3145 95.8848 36.0059 93.0723C34.7168 90.2598 32.793 88.1895 30.2344 86.8613C27.6758 85.5332 24.5215 84.8691 20.7715 84.8691H12.6855V123.131ZM347.558 115.937C345.171 112.222 341.398 109.483 336.97 108.45L347.952 74H362.015L347.558 115.937ZM329.307 108.404C324.884 109.379 321.098 112.051 318.667 115.703L304.271 74H318.362L329.307 108.404ZM432.437 102.535H441.05C443.472 102.535 445.483 102.203 447.085 101.539C448.687 100.875 449.878 99.8789 450.659 98.5508C451.46 97.2227 451.86 95.5723 451.86 93.5996C451.86 91.6074 451.46 89.9277 450.659 88.5605C449.878 87.1934 448.677 86.1582 447.056 85.4551C445.454 84.7324 443.433 84.3711 440.991 84.3711H432.437V102.535ZM267.679 102.535H276.292C278.714 102.535 280.726 102.203 282.327 101.539C283.928 100.875 285.12 99.8788 285.901 98.5508C286.702 97.2227 287.103 95.5722 287.103 93.5996C287.103 91.6075 286.702 89.9277 285.901 88.5605C285.12 87.1935 283.919 86.1582 282.298 85.4551C280.696 84.7325 278.675 84.3711 276.233 84.3711H267.679V102.535Z" fill="#FDF5E6"/>
<path d="M351.785 130.5C351.785 130.5 343.39 130.5 333.035 130.5C322.68 130.5 314.285 130.5 314.285 130.5C314.285 121.387 322.68 114 333.035 114C343.39 114 351.785 121.387 351.785 130.5Z" fill="#FDF5E6"/>
<rect x="311.285" y="132" width="43.5" height="3" rx="1.5" fill="#FDF5E6"/>
<line x1="333.41" y1="115.125" x2="333.41" y2="115.875" stroke="#FDF5E6" stroke-width="8.25" stroke-linecap="round"/>
</svg>
