<svg width="289" height="121" viewBox="0 0 289 121" fill="none" xmlns="http://www.w3.org/2000/svg">
<circle cx="145" cy="55" r="55" fill="#3F2316"/>
<path d="M289 58C289 52.4772 284.523 48 279 48H9.99999C4.47714 48 0 52.4772 0 58V111C0 116.523 4.47715 121 10 121H279C284.523 121 289 116.523 289 111V58Z" fill="#3F2316"/>
<circle cx="145" cy="57" r="50" fill="#FFBFBE"/>
<path d="M283 59C283 56.2386 280.761 54 278 54H11C8.23858 54 6 56.2386 6 59V111C6 113.761 8.23858 116 11 116H278C280.761 116 283 113.761 283 111V59Z" fill="#FFBFBE"/>
<path d="M75.79 72.04H78.94V99.52H75.79V72.04ZM64.36 74.05C65.72 74.05 66.93 74.45 67.99 75.25C69.07 76.05 69.91 77.17 70.51 78.61C71.11 80.05 71.41 81.75 71.41 83.71C71.41 85.69 71.11 87.41 70.51 88.87C69.91 90.31 69.07 91.43 67.99 92.23C66.93 93.01 65.72 93.4 64.36 93.4C63 93.4 61.78 93.01 60.7 92.23C59.64 91.43 58.8 90.31 58.18 88.87C57.58 87.41 57.28 85.69 57.28 83.71C57.28 81.75 57.58 80.05 58.18 78.61C58.8 77.17 59.64 76.05 60.7 75.25C61.78 74.45 63 74.05 64.36 74.05ZM64.36 76.9C63.56 76.9 62.85 77.17 62.23 77.71C61.63 78.25 61.16 79.03 60.82 80.05C60.48 81.07 60.31 82.29 60.31 83.71C60.31 85.15 60.48 86.38 60.82 87.4C61.16 88.42 61.63 89.21 62.23 89.77C62.85 90.31 63.56 90.58 64.36 90.58C65.16 90.58 65.86 90.31 66.46 89.77C67.06 89.21 67.53 88.42 67.87 87.4C68.21 86.38 68.38 85.15 68.38 83.71C68.38 82.29 68.21 81.07 67.87 80.05C67.53 79.03 67.06 78.25 66.46 77.71C65.86 77.17 65.16 76.9 64.36 76.9ZM98.5877 79.42H105.248V81.97H98.5877V79.42ZM103.538 72.07H106.688V92.11H103.538V72.07ZM88.9277 96.37H107.408V98.92H88.9277V96.37ZM88.9277 90.37H92.0777V97.78H88.9277V90.37ZM90.6677 75.55H93.2477V77.56C93.2477 79.24 92.9377 80.84 92.3177 82.36C91.7177 83.86 90.8477 85.17 89.7077 86.29C88.5677 87.41 87.1877 88.26 85.5677 88.84L83.9477 86.35C85.0277 85.97 85.9777 85.48 86.7977 84.88C87.6377 84.28 88.3477 83.59 88.9277 82.81C89.5077 82.03 89.9377 81.19 90.2177 80.29C90.5177 79.39 90.6677 78.48 90.6677 77.56V75.55ZM91.2977 75.55H93.8477V77.53C93.8477 78.67 94.0977 79.78 94.5977 80.86C95.0977 81.94 95.8277 82.91 96.7877 83.77C97.7477 84.63 98.9177 85.3 100.298 85.78L98.7377 88.24C97.1577 87.68 95.8077 86.87 94.6877 85.81C93.5877 84.73 92.7477 83.48 92.1677 82.06C91.5877 80.62 91.2977 79.11 91.2977 77.53V75.55ZM84.8777 74.14H99.5477V76.66H84.8777V74.14ZM128.934 74.92H131.664V75.91C131.664 76.89 131.484 77.82 131.124 78.7C130.784 79.56 130.284 80.37 129.624 81.13C128.964 81.87 128.184 82.53 127.284 83.11C126.404 83.69 125.414 84.18 124.314 84.58C123.234 84.98 122.074 85.28 120.834 85.48L119.664 82.99C120.744 82.85 121.744 82.62 122.664 82.3C123.604 81.98 124.454 81.59 125.214 81.13C125.994 80.67 126.654 80.16 127.194 79.6C127.754 79.04 128.184 78.45 128.484 77.83C128.784 77.21 128.934 76.57 128.934 75.91V74.92ZM129.774 74.92H132.504V75.91C132.504 76.57 132.644 77.21 132.924 77.83C133.224 78.45 133.654 79.04 134.214 79.6C134.774 80.16 135.434 80.67 136.194 81.13C136.954 81.59 137.804 81.98 138.744 82.3C139.684 82.62 140.694 82.85 141.774 82.99L140.604 85.48C139.364 85.28 138.194 84.98 137.094 84.58C136.014 84.18 135.024 83.69 134.124 83.11C133.224 82.53 132.444 81.87 131.784 81.13C131.144 80.37 130.644 79.56 130.284 78.7C129.944 77.82 129.774 76.89 129.774 75.91V74.92ZM129.084 89.2H132.204V99.46H129.084V89.2ZM118.314 87.46H143.094V90.01H118.314V87.46ZM120.594 73.63H140.784V76.12H120.594V73.63ZM145.881 85.87H170.721V88.39H145.881V85.87ZM156.981 87.43H160.131V93.52H156.981V87.43ZM149.031 73.27H167.541V83.17H149.031V73.27ZM164.421 75.76H152.091V80.68H164.421V75.76ZM148.911 96.37H167.961V98.92H148.911V96.37ZM148.911 91.03H152.061V97.24H148.911V91.03ZM200.557 72.04H203.587V99.46H200.557V72.04ZM196.417 82.96H201.397V85.51H196.417V82.96ZM194.407 72.61H197.347V98.11H194.407V72.61ZM181.447 75.25H184.597V91.06H181.447V75.25ZM181.447 89.86H183.277C184.657 89.86 186.117 89.81 187.657 89.71C189.217 89.59 190.877 89.36 192.637 89.02L192.937 91.72C191.117 92.08 189.407 92.31 187.807 92.41C186.207 92.51 184.697 92.56 183.277 92.56H181.447V89.86ZM220.175 75.94H228.425V78.46H220.175V75.94ZM220.175 82H228.425V84.55H220.175V82ZM212.105 89.65H230.555V99.49H227.405V92.14H212.105V89.65ZM227.405 72.07H230.555V88.24H227.405V72.07ZM215.375 73.54C216.715 73.54 217.925 73.83 219.005 74.41C220.085 74.97 220.935 75.76 221.555 76.78C222.175 77.78 222.485 78.93 222.485 80.23C222.485 81.53 222.175 82.69 221.555 83.71C220.935 84.71 220.085 85.5 219.005 86.08C217.925 86.64 216.715 86.92 215.375 86.92C214.015 86.92 212.795 86.64 211.715 86.08C210.635 85.5 209.785 84.71 209.165 83.71C208.545 82.69 208.235 81.53 208.235 80.23C208.235 78.93 208.545 77.78 209.165 76.78C209.785 75.76 210.635 74.97 211.715 74.41C212.795 73.83 214.015 73.54 215.375 73.54ZM215.345 76.21C214.565 76.21 213.865 76.38 213.245 76.72C212.625 77.06 212.125 77.53 211.745 78.13C211.385 78.73 211.205 79.43 211.205 80.23C211.205 81.03 211.385 81.73 211.745 82.33C212.125 82.93 212.625 83.4 213.245 83.74C213.865 84.06 214.575 84.22 215.375 84.22C216.155 84.22 216.855 84.06 217.475 83.74C218.095 83.4 218.585 82.93 218.945 82.33C219.305 81.73 219.485 81.03 219.485 80.23C219.485 79.43 219.305 78.73 218.945 78.13C218.585 77.53 218.095 77.06 217.475 76.72C216.855 76.38 216.145 76.21 215.345 76.21Z" fill="#3F2316"/>
<circle cx="145" cy="43" r="12" fill="#FDF5E6" stroke="#3F2316" stroke-width="6"/>
</svg>
