<svg width="30" height="33" viewBox="0 0 30 33" fill="none" xmlns="http://www.w3.org/2000/svg">
<path d="M1.61816 30.5486C1.03827 30.5486 0.568164 31.0187 0.568164 31.5986C0.568164 32.1785 1.03827 32.6486 1.61816 32.6486L1.61816 31.5986L1.61816 30.5486ZM1.61816 31.5986L1.61816 32.6486H18.4182V31.5986V30.5486L1.61816 30.5486L1.61816 31.5986ZM18.4182 10.5986V9.54863L1.61816 9.54863L1.61816 10.5986L1.61816 11.6486L18.4182 11.6486V10.5986ZM28.9182 21.0986H29.9682C29.9682 14.7197 24.7971 9.54863 18.4182 9.54863V10.5986V11.6486C23.6373 11.6486 27.8682 15.8795 27.8682 21.0986H28.9182ZM18.4182 31.5986V32.6486C24.797 32.6486 29.9682 27.4775 29.9682 21.0986H28.9182H27.8682C27.8682 26.3177 23.6373 30.5486 18.4182 30.5486V31.5986Z" fill="#3F2316"/>
<path d="M13.5181 0.798828L1.61807 10.9488L13.5181 21.0988" stroke="#3F2316" stroke-width="2.1"/>
</svg>
