<svg width="60" height="60" viewBox="0 0 60 60" fill="none" xmlns="http://www.w3.org/2000/svg">
<path d="M30 0L55.9808 15V45L30 60L4.01924 45V15L30 0Z" fill="#DEC559"/>
<path d="M30 10L47.3205 20V40L30 50L12.6795 40V20L30 10Z" fill="#FDF5E6"/>
<path d="M19.919 26.0909L22.5558 34.3793H22.657L25.299 26.0909H27.8558L24.0952 37H21.1229L17.3569 26.0909H19.919ZM31.4753 26.0909V37H29.1689V26.0909H31.4753ZM33.373 37V26.0909H37.6769C38.5044 26.0909 39.2093 26.2489 39.7916 26.565C40.374 26.8775 40.8179 27.3125 41.1233 27.87C41.4323 28.424 41.5867 29.0632 41.5867 29.7876C41.5867 30.5121 41.4305 31.1513 41.118 31.7053C40.8055 32.2592 40.3527 32.6907 39.7597 32.9996C39.1702 33.3086 38.4564 33.4631 37.6183 33.4631H34.8751V31.6147H37.2455C37.6894 31.6147 38.0551 31.5384 38.3428 31.3857C38.634 31.2294 38.8506 31.0146 38.9926 30.7411C39.1382 30.4641 39.211 30.1463 39.211 29.7876C39.211 29.4254 39.1382 29.1094 38.9926 28.8395C38.8506 28.5661 38.634 28.3548 38.3428 28.2056C38.0516 28.0529 37.6823 27.9766 37.2348 27.9766H35.6794V37H33.373Z" fill="#3F2316"/>
</svg>
